<svg xmlns="http://www.w3.org/2000/svg" version="1.1" xmlns:xlink="http://www.w3.org/1999/xlink" xmlns:svgjs="http://svgjs.dev/svgjs" width="1000" height="680" preserveAspectRatio="none" viewBox="0 0 1000 680"><g mask="url(&quot;#SvgjsMask1085&quot;)" fill="none"><path d="M 0,135 C 28.6,204.8 85.8,473.6 143,484 C 200.2,494.4 228.8,180.2 286,187 C 343.2,193.8 371.8,495.4 429,518 C 486.2,540.6 514.8,275.4 572,300 C 629.2,324.6 657.8,678.6 715,641 C 772.2,603.4 801,133.6 858,112 C 915,90.4 971.6,448.8 1000,533L1000 680L0 680z" fill="rgba(150, 212, 109, 1)"></path><path d="M 0,109 C 33.4,218.6 100.2,652.8 167,657 C 233.8,661.2 267.2,133 334,130 C 400.8,127 434.2,636.8 501,642 C 567.8,647.2 601.2,148.8 668,156 C 734.8,163.2 768.6,686.8 835,678 C 901.4,669.2 967,225.2 1000,112L1000 680L0 680z" fill="rgba(255, 186, 108, 1)"></path><path d="M 0,548 C 40,494 120,262.2 200,278 C 280,293.8 320,619.6 400,627 C 480,634.4 520,353.8 600,315 C 680,276.2 720,451.6 800,433 C 880,414.4 960,264.2 1000,222L1000 680L0 680z" fill="rgba(233, 159, 159, 1)"></path></g><defs><mask id="SvgjsMask1085"><rect width="1000" height="680" fill="#ffffff"></rect></mask></defs></svg>